<svg width="118" height="13" viewBox="0 0 118 13" fill="none" xmlns="http://www.w3.org/2000/svg">
<path d="M6.09287 13C4.83934 13 3.75456 12.7336 2.83852 12.2008C1.93453 11.6562 1.23545 10.9044 0.741269 9.94535C0.24709 8.9745 0 7.85565 0 6.5888C0 5.31011 0.24709 4.19126 0.741269 3.23224C1.23545 2.26138 1.93453 1.50364 2.83852 0.959016C3.75456 0.41439 4.83934 0.142076 6.09287 0.142076C7.5754 0.142076 8.78675 0.497268 9.72689 1.20765C10.667 1.91803 11.2637 2.91257 11.5168 4.19126H9.38338C9.21463 3.46903 8.85304 2.89481 8.29859 2.46858C7.74415 2.04235 7.00288 1.82923 6.07479 1.82923C4.80921 1.82923 3.80879 2.25546 3.07355 3.10792C2.33831 3.94854 1.97069 5.10883 1.97069 6.5888C1.97069 8.05692 2.33831 9.21129 3.07355 10.0519C3.80879 10.8925 4.80921 11.3128 6.07479 11.3128C7.00288 11.3128 7.74415 11.1116 8.29859 10.709C8.85304 10.3065 9.21463 9.75592 9.38338 9.05738H11.5168C11.2637 10.2887 10.667 11.2536 9.72689 11.9522C8.78675 12.6507 7.5754 13 6.09287 13Z" fill="#080415"/>
<path d="M13.0086 12.7869V3.97814H14.7262L14.8889 5.64754C15.2023 5.0674 15.6362 4.61157 16.1907 4.28005C16.7572 3.9367 17.4382 3.76503 18.2337 3.76503V5.73634H17.7094C17.179 5.73634 16.7029 5.82514 16.2811 6.00273C15.8713 6.16849 15.5398 6.45856 15.2867 6.87295C15.0456 7.2755 14.9251 7.83789 14.9251 8.56011V12.7869H13.0086Z" fill="#080415"/>
<path d="M23.2817 13C22.4019 13 21.6184 12.8106 20.9314 12.4317C20.2564 12.041 19.7261 11.5023 19.3404 10.8156C18.9547 10.1289 18.7618 9.32969 18.7618 8.41803C18.7618 7.49453 18.9486 6.68352 19.3223 5.98497C19.708 5.28643 20.2383 4.7418 20.9133 4.35109C21.6003 3.96038 22.3958 3.76503 23.2998 3.76503C24.1797 3.76503 24.9451 3.96038 25.5959 4.35109C26.2468 4.72996 26.753 5.23907 27.1146 5.87842C27.4762 6.51776 27.657 7.22222 27.657 7.9918C27.657 8.1102 27.651 8.24044 27.639 8.38251C27.639 8.51275 27.6329 8.66075 27.6209 8.8265H20.6421C20.7024 9.67896 20.9856 10.3301 21.4918 10.7801C22.0101 11.2181 22.6068 11.4372 23.2817 11.4372C23.8241 11.4372 24.2761 11.3188 24.6377 11.082C25.0114 10.8333 25.2886 10.5018 25.4694 10.0874H27.3858C27.1448 10.9162 26.6626 11.6088 25.9395 12.1653C25.2283 12.7218 24.3424 13 23.2817 13ZM23.2817 5.31011C22.6429 5.31011 22.0764 5.49954 21.5822 5.87842C21.0881 6.24545 20.7867 6.80191 20.6783 7.54781H25.7406C25.7044 6.86111 25.4573 6.31648 24.9993 5.91393C24.5413 5.51138 23.9688 5.31011 23.2817 5.31011Z" fill="#080415"/>
<path d="M32.1405 13C31.3812 13 30.7544 12.8757 30.2602 12.627C29.7661 12.3784 29.3984 12.0528 29.1574 11.6503C28.9163 11.2359 28.7958 10.786 28.7958 10.3005C28.7958 9.44809 29.1333 8.77322 29.8082 8.27596C30.4832 7.77869 31.4475 7.53005 32.701 7.53005H35.0514V7.37022C35.0514 6.68352 34.8585 6.16849 34.4728 5.82514C34.0992 5.48178 33.611 5.31011 33.0083 5.31011C32.478 5.31011 32.014 5.44035 31.6162 5.70082C31.2305 5.94945 30.9955 6.3224 30.9111 6.81967H28.9946C29.0549 6.18033 29.2719 5.6357 29.6455 5.18579C30.0312 4.72404 30.5133 4.37477 31.0919 4.13798C31.6825 3.88934 32.3273 3.76503 33.0264 3.76503C34.28 3.76503 35.2502 4.09062 35.9373 4.7418C36.6243 5.38115 36.9678 6.25729 36.9678 7.37022V12.7869H35.3045L35.1418 11.2773C34.8886 11.7628 34.521 12.1712 34.0389 12.5027C33.5568 12.8342 32.924 13 32.1405 13ZM32.5202 11.4727C33.0385 11.4727 33.4724 11.3543 33.8219 11.1175C34.1835 10.8689 34.4608 10.5433 34.6536 10.1407C34.8585 9.73816 34.9851 9.29417 35.0333 8.80874H32.8999C32.1405 8.80874 31.5981 8.93898 31.2727 9.19945C30.9593 9.45993 30.8026 9.78552 30.8026 10.1762C30.8026 10.5788 30.9533 10.8985 31.2546 11.1352C31.568 11.3602 31.9899 11.4727 32.5202 11.4727Z" fill="#080415"/>
<path d="M42.244 12.7869C41.3641 12.7869 40.665 12.5797 40.1467 12.1653C39.6284 11.7391 39.3693 10.9872 39.3693 9.90984V5.55874H37.8325V3.97814H39.3693L39.6043 1.74044H41.2858V3.97814H43.8169V5.55874H41.2858V9.90984C41.2858 10.3953 41.3882 10.7327 41.5931 10.9221C41.8101 11.0997 42.1777 11.1885 42.696 11.1885H43.7265V12.7869H42.244Z" fill="#080415"/>
<path d="M46.3354 2.30874C45.9738 2.30874 45.6724 2.20218 45.4314 1.98907C45.2024 1.76412 45.0879 1.48588 45.0879 1.15437C45.0879 0.82286 45.2024 0.550546 45.4314 0.337431C45.6724 0.112477 45.9738 0 46.3354 0C46.697 0 46.9923 0.112477 47.2213 0.337431C47.4623 0.550546 47.5829 0.82286 47.5829 1.15437C47.5829 1.48588 47.4623 1.76412 47.2213 1.98907C46.9923 2.20218 46.697 2.30874 46.3354 2.30874ZM45.3771 12.7869V3.97814H47.2936V12.7869H45.3771Z" fill="#080415"/>
<path d="M51.7942 12.7869L48.4313 3.97814H50.4382L52.9332 10.9932L55.4282 3.97814H57.417L54.0722 12.7869H51.7942Z" fill="#080415"/>
<path d="M62.1849 13C61.305 13 60.5216 12.8106 59.8346 12.4317C59.1596 12.041 58.6292 11.5023 58.2435 10.8156C57.8578 10.1289 57.665 9.32969 57.665 8.41803C57.665 7.49453 57.8518 6.68352 58.2255 5.98497C58.6112 5.28643 59.1415 4.7418 59.8165 4.35109C60.5035 3.96038 61.299 3.76503 62.203 3.76503C63.0829 3.76503 63.8483 3.96038 64.4991 4.35109C65.15 4.72996 65.6562 5.23907 66.0178 5.87842C66.3794 6.51776 66.5602 7.22222 66.5602 7.9918C66.5602 8.1102 66.5542 8.24044 66.5421 8.38251C66.5421 8.51275 66.5361 8.66075 66.5241 8.8265H59.5453C59.6056 9.67896 59.8888 10.3301 60.395 10.7801C60.9133 11.2181 61.5099 11.4372 62.1849 11.4372C62.7273 11.4372 63.1793 11.3188 63.5409 11.082C63.9146 10.8333 64.1918 10.5018 64.3726 10.0874H66.289C66.048 10.9162 65.5658 11.6088 64.8426 12.1653C64.1315 12.7218 63.2456 13 62.1849 13ZM62.1849 5.31011C61.5461 5.31011 60.9796 5.49954 60.4854 5.87842C59.9913 6.24545 59.6899 6.80191 59.5814 7.54781H64.6438C64.6076 6.86111 64.3605 6.31648 63.9025 5.91393C63.4445 5.51138 62.872 5.31011 62.1849 5.31011Z" fill="#080415"/>
<path d="M77.7324 13C76.4788 13 75.3941 12.7336 74.478 12.2008C73.574 11.6562 72.8749 10.9044 72.3808 9.94535C71.8866 8.9745 71.6395 7.85565 71.6395 6.5888C71.6395 5.31011 71.8866 4.19126 72.3808 3.23224C72.8749 2.26138 73.574 1.50364 74.478 0.959016C75.3941 0.41439 76.4788 0.142076 77.7324 0.142076C79.2149 0.142076 80.4262 0.497268 81.3664 1.20765C82.3065 1.91803 82.9032 2.91257 83.1563 4.19126H81.0229C80.8541 3.46903 80.4925 2.89481 79.9381 2.46858C79.3836 2.04235 78.6424 1.82923 77.7143 1.82923C76.4487 1.82923 75.4483 2.25546 74.7131 3.10792C73.9778 3.94854 73.6102 5.10883 73.6102 6.5888C73.6102 8.05692 73.9778 9.21129 74.7131 10.0519C75.4483 10.8925 76.4487 11.3128 77.7143 11.3128C78.6424 11.3128 79.3836 11.1116 79.9381 10.709C80.4925 10.3065 80.8541 9.75592 81.0229 9.05738H83.1563C82.9032 10.2887 82.3065 11.2536 81.3664 11.9522C80.4262 12.6507 79.2149 13 77.7324 13Z" fill="#080415"/>
<path d="M84.6481 12.7869V0H86.5646V12.7869H84.6481Z" fill="#080415"/>
<path d="M92.6436 13C91.7878 13 91.0164 12.8106 90.3294 12.4317C89.6544 12.041 89.1181 11.5023 88.7203 10.8156C88.3226 10.117 88.1237 9.30601 88.1237 8.38251C88.1237 7.45902 88.3226 6.65392 88.7203 5.96721C89.1301 5.26867 89.6785 4.72996 90.3656 4.35109C91.0526 3.96038 91.818 3.76503 92.6617 3.76503C93.5175 3.76503 94.2828 3.96038 94.9578 4.35109C95.6448 4.72996 96.1872 5.26867 96.585 5.96721C96.9948 6.65392 97.1997 7.45902 97.1997 8.38251C97.1997 9.30601 96.9948 10.117 96.585 10.8156C96.1872 11.5023 95.6448 12.041 94.9578 12.4317C94.2708 12.8106 93.4994 13 92.6436 13ZM92.6436 11.3839C93.1016 11.3839 93.5235 11.2714 93.9092 11.0464C94.3069 10.8215 94.6264 10.49 94.8674 10.0519C95.1085 9.602 95.229 9.04554 95.229 8.38251C95.229 7.71949 95.1085 7.16894 94.8674 6.73087C94.6384 6.28096 94.325 5.94353 93.9273 5.71858C93.5416 5.49362 93.1197 5.38115 92.6617 5.38115C92.2037 5.38115 91.7758 5.49362 91.378 5.71858C90.9923 5.94353 90.6789 6.28096 90.4379 6.73087C90.1968 7.16894 90.0763 7.71949 90.0763 8.38251C90.0763 9.04554 90.1968 9.602 90.4379 10.0519C90.6789 10.49 90.9923 10.8215 91.378 11.0464C91.7637 11.2714 92.1856 11.3839 92.6436 11.3839Z" fill="#080415"/>
<path d="M102.038 13C100.954 13 100.098 12.6685 99.4711 12.0055C98.8564 11.3424 98.549 10.3538 98.549 9.03962V3.97814H100.465V8.84426C100.465 10.5492 101.177 11.4016 102.599 11.4016C103.31 11.4016 103.895 11.153 104.353 10.6557C104.811 10.1585 105.04 9.44809 105.04 8.52459V3.97814H106.956V12.7869H105.257L105.112 11.2418C104.835 11.7864 104.425 12.2186 103.883 12.5383C103.352 12.8461 102.738 13 102.038 13Z" fill="#080415"/>
<path d="M112.938 13C112.07 13 111.304 12.7987 110.642 12.3962C109.979 11.9936 109.46 11.4431 109.087 10.7445C108.713 10.046 108.526 9.25273 108.526 8.36475C108.526 7.47678 108.713 6.68944 109.087 6.00273C109.46 5.30419 109.979 4.75956 110.642 4.36885C111.317 3.9663 112.088 3.76503 112.956 3.76503C113.667 3.76503 114.288 3.90118 114.818 4.1735C115.36 4.44581 115.782 4.8306 116.084 5.32787V0H118V12.7869H116.282L116.084 11.4194C115.794 11.8338 115.397 12.2008 114.89 12.5205C114.384 12.8402 113.733 13 112.938 13ZM113.281 11.3661C114.101 11.3661 114.77 11.0879 115.288 10.5314C115.818 9.97495 116.084 9.25865 116.084 8.38251C116.084 7.49453 115.818 6.77823 115.288 6.23361C114.77 5.67714 114.101 5.39891 113.281 5.39891C112.462 5.39891 111.787 5.67714 111.256 6.23361C110.726 6.77823 110.461 7.49453 110.461 8.38251C110.461 8.96266 110.581 9.47769 110.822 9.9276C111.063 10.3775 111.395 10.7327 111.817 10.9932C112.251 11.2418 112.739 11.3661 113.281 11.3661Z" fill="#080415"/>
</svg>
