<svg width="82" height="17" viewBox="0 0 82 17" fill="none" xmlns="http://www.w3.org/2000/svg">
<path d="M0 13.0213V0.361701H2.25684L6.53582 8.78936L10.7967 0.361701H13.0536V13.0213H11.1398V3.67128L7.27606 11.2128H5.79557L1.9138 3.68936V13.0213H0Z" fill="#080415"/>
<path d="M18.0409 13.2383C17.2826 13.2383 16.6567 13.1117 16.1632 12.8585C15.6697 12.6053 15.3026 12.2738 15.0619 11.8638C14.8212 11.4418 14.7008 10.9837 14.7008 10.4894C14.7008 9.62128 15.0378 8.93404 15.7119 8.42766C16.3859 7.92128 17.3488 7.66808 18.6006 7.66808H20.9477V7.50532C20.9477 6.80603 20.7552 6.28156 20.37 5.93191C19.9969 5.58227 19.5094 5.40745 18.9076 5.40745C18.3779 5.40745 17.9145 5.54007 17.5173 5.80532C17.1322 6.05851 16.8975 6.4383 16.8132 6.94468H14.8994C14.9596 6.29362 15.1762 5.73901 15.5494 5.28085C15.9345 4.81064 16.416 4.45496 16.9937 4.21383C17.5835 3.96064 18.2275 3.83404 18.9256 3.83404C20.1774 3.83404 21.1463 4.1656 21.8324 4.82872C22.5185 5.47979 22.8615 6.37199 22.8615 7.50532V13.0213H21.2005L21.038 11.484C20.7852 11.9784 20.4181 12.3943 19.9367 12.7319C19.4552 13.0695 18.8233 13.2383 18.0409 13.2383ZM18.4201 11.683C18.9376 11.683 19.371 11.5624 19.72 11.3213C20.0811 11.0681 20.3579 10.7365 20.5505 10.3266C20.7552 9.91667 20.8815 9.46454 20.9297 8.97021H18.7992C18.0409 8.97021 17.4993 9.10284 17.1743 9.36808C16.8613 9.63333 16.7049 9.96489 16.7049 10.3628C16.7049 10.7727 16.8553 11.0982 17.1562 11.3394C17.4692 11.5684 17.8905 11.683 18.4201 11.683Z" fill="#080415"/>
<path d="M25.6346 2.35106C25.2735 2.35106 24.9726 2.24255 24.7319 2.02553C24.5032 1.79645 24.3889 1.51312 24.3889 1.17553C24.3889 0.837943 24.5032 0.560638 24.7319 0.343617C24.9726 0.114539 25.2735 0 25.6346 0C25.9957 0 26.2906 0.114539 26.5193 0.343617C26.76 0.560638 26.8804 0.837943 26.8804 1.17553C26.8804 1.51312 26.76 1.79645 26.5193 2.02553C26.2906 2.24255 25.9957 2.35106 25.6346 2.35106ZM24.6777 13.0213V4.05106H26.5915V13.0213H24.6777Z" fill="#080415"/>
<path d="M28.5763 13.0213V0H30.4901V13.0213H28.5763Z" fill="#080415"/>
<path d="M36.6149 13.2383C35.7362 13.2383 34.9478 13.0394 34.2497 12.6415C33.5636 12.2436 33.022 11.695 32.6248 10.9957C32.2396 10.2844 32.047 9.46454 32.047 8.53617C32.047 7.6078 32.2396 6.79397 32.6248 6.09468C33.022 5.38333 33.5636 4.82872 34.2497 4.43085C34.9478 4.03298 35.7362 3.83404 36.6149 3.83404C37.7222 3.83404 38.6491 4.1234 39.3953 4.70213C40.1536 5.28085 40.6411 6.06454 40.8578 7.05319H38.8537C38.7333 6.55887 38.4685 6.17305 38.0593 5.89574C37.65 5.61844 37.1686 5.47979 36.6149 5.47979C36.1455 5.47979 35.7121 5.60035 35.3149 5.84149C34.9177 6.07057 34.5988 6.41418 34.358 6.87234C34.1173 7.31844 33.9969 7.87305 33.9969 8.53617C33.9969 9.19929 34.1173 9.75993 34.358 10.2181C34.5988 10.6642 34.9177 11.0078 35.3149 11.2489C35.7121 11.4901 36.1455 11.6106 36.6149 11.6106C37.1686 11.6106 37.65 11.472 38.0593 11.1947C38.4685 10.9174 38.7333 10.5255 38.8537 10.0191H40.8578C40.6531 10.9837 40.1717 11.7613 39.4134 12.3521C38.6551 12.9429 37.7222 13.2383 36.6149 13.2383Z" fill="#080415"/>
<path d="M42.3917 13.0213V0H44.3055V5.49787C44.6064 4.97943 45.0217 4.57553 45.5513 4.28617C46.0929 3.98475 46.6887 3.83404 47.3387 3.83404C48.41 3.83404 49.2525 4.17163 49.8664 4.84681C50.4802 5.52199 50.7872 6.52872 50.7872 7.86702V13.0213H48.8914V8.06596C48.8914 6.32979 48.1993 5.4617 46.8151 5.4617C46.0929 5.4617 45.4911 5.71489 45.0096 6.22128C44.5402 6.72766 44.3055 7.45106 44.3055 8.39149V13.0213H42.3917Z" fill="#080415"/>
<path d="M53.5828 2.35106C53.2217 2.35106 52.9208 2.24255 52.6801 2.02553C52.4514 1.79645 52.337 1.51312 52.337 1.17553C52.337 0.837943 52.4514 0.560638 52.6801 0.343617C52.9208 0.114539 53.2217 0 53.5828 0C53.9439 0 54.2388 0.114539 54.4675 0.343617C54.7082 0.560638 54.8286 0.837943 54.8286 1.17553C54.8286 1.51312 54.7082 1.79645 54.4675 2.02553C54.2388 2.24255 53.9439 2.35106 53.5828 2.35106ZM52.6259 13.0213V4.05106H54.5397V13.0213H52.6259Z" fill="#080415"/>
<path d="M56.5245 13.0213V4.05106H58.2216L58.3841 5.31702C58.673 4.85886 59.0521 4.49716 59.5216 4.23191C60.003 3.96667 60.5567 3.83404 61.1826 3.83404C62.6029 3.83404 63.5899 4.39468 64.1436 5.51596C64.4686 4.99752 64.9019 4.58759 65.4435 4.28617C65.9972 3.98475 66.593 3.83404 67.2309 3.83404C68.3503 3.83404 69.229 4.17163 69.8669 4.84681C70.5049 5.52199 70.8238 6.52872 70.8238 7.86702V13.0213H68.91V8.06596C68.91 6.32979 68.248 5.4617 66.924 5.4617C66.25 5.4617 65.6963 5.71489 65.263 6.22128C64.8417 6.72766 64.6311 7.45106 64.6311 8.39149V13.0213H62.7173V8.06596C62.7173 6.32979 62.0492 5.4617 60.7132 5.4617C60.0512 5.4617 59.5035 5.71489 59.0702 6.22128C58.6489 6.72766 58.4383 7.45106 58.4383 8.39149V13.0213H56.5245Z" fill="#080415"/>
<path d="M72.5213 17V4.05106H74.2365L74.4351 5.44362C74.7239 5.02163 75.1211 4.64787 75.6267 4.32234C76.1322 3.99681 76.7822 3.83404 77.5766 3.83404C78.4432 3.83404 79.2075 4.03901 79.8695 4.44894C80.5315 4.85886 81.0491 5.4195 81.4222 6.13085C81.8074 6.8422 82 7.65 82 8.55426C82 9.45851 81.8074 10.2663 81.4222 10.9777C81.0491 11.677 80.5315 12.2316 79.8695 12.6415C79.2075 13.0394 78.4372 13.2383 77.5585 13.2383C76.8604 13.2383 76.2405 13.0996 75.6989 12.8223C75.1693 12.545 74.748 12.1532 74.4351 11.6468V17H72.5213ZM77.2335 11.5745C78.052 11.5745 78.7261 11.2972 79.2557 10.7426C79.7853 10.1759 80.0501 9.44042 80.0501 8.53617C80.0501 7.94539 79.9297 7.42092 79.689 6.96277C79.4483 6.50461 79.1173 6.14894 78.696 5.89574C78.2747 5.6305 77.7872 5.49787 77.2335 5.49787C76.4151 5.49787 75.741 5.78121 75.2114 6.34787C74.6939 6.91454 74.4351 7.64397 74.4351 8.53617C74.4351 9.44042 74.6939 10.1759 75.2114 10.7426C75.741 11.2972 76.4151 11.5745 77.2335 11.5745Z" fill="#080415"/>
</svg>
