<svg width="125" height="13" viewBox="0 0 125 13" fill="none" xmlns="http://www.w3.org/2000/svg">
<path d="M3.42315 12.7992L0 0H2.06475L4.58231 10.5899L7.48021 0H9.5993L12.4066 10.5899L14.9242 0H16.9889L13.5115 12.7809H11.2656L8.49447 2.75702L5.6328 12.7809L3.42315 12.7992Z" fill="#080415"/>
<path d="M21.3992 13C20.5419 13 19.7691 12.8052 19.0809 12.4157C18.4047 12.014 17.8674 11.4602 17.4689 10.7542C17.0704 10.036 16.8712 9.20225 16.8712 8.25281C16.8712 7.30337 17.0704 6.47566 17.4689 5.76966C17.8794 5.0515 18.4288 4.49766 19.1171 4.10815C19.8053 3.70646 20.5721 3.50562 21.4173 3.50562C22.2746 3.50562 23.0413 3.70646 23.7175 4.10815C24.4058 4.49766 24.9491 5.0515 25.3476 5.76966C25.7581 6.47566 25.9634 7.30337 25.9634 8.25281C25.9634 9.20225 25.7581 10.036 25.3476 10.7542C24.9491 11.4602 24.4058 12.014 23.7175 12.4157C23.0293 12.8052 22.2565 13 21.3992 13ZM21.3992 11.3385C21.858 11.3385 22.2806 11.2228 22.667 10.9916C23.0655 10.7603 23.3855 10.4195 23.627 9.9691C23.8684 9.50655 23.9892 8.93446 23.9892 8.25281C23.9892 7.57116 23.8684 7.00515 23.627 6.55477C23.3975 6.09223 23.0836 5.74532 22.6851 5.51405C22.2987 5.28277 21.8761 5.16714 21.4173 5.16714C20.9585 5.16714 20.5298 5.28277 20.1314 5.51405C19.745 5.74532 19.431 6.09223 19.1895 6.55477C18.948 7.00515 18.8273 7.57116 18.8273 8.25281C18.8273 8.93446 18.948 9.50655 19.1895 9.9691C19.431 10.4195 19.745 10.7603 20.1314 10.9916C20.5177 11.2228 20.9404 11.3385 21.3992 11.3385Z" fill="#080415"/>
<path d="M31.6982 13C30.8409 13 30.0681 12.8052 29.3799 12.4157C28.7037 12.014 28.1664 11.4602 27.7679 10.7542C27.3695 10.036 27.1702 9.20225 27.1702 8.25281C27.1702 7.30337 27.3695 6.47566 27.7679 5.76966C28.1785 5.0515 28.7279 4.49766 29.4161 4.10815C30.1044 3.70646 30.8711 3.50562 31.7163 3.50562C32.5736 3.50562 33.3403 3.70646 34.0165 4.10815C34.7048 4.49766 35.2481 5.0515 35.6466 5.76966C36.0571 6.47566 36.2624 7.30337 36.2624 8.25281C36.2624 9.20225 36.0571 10.036 35.6466 10.7542C35.2481 11.4602 34.7048 12.014 34.0165 12.4157C33.3283 12.8052 32.5555 13 31.6982 13ZM31.6982 11.3385C32.157 11.3385 32.5796 11.2228 32.966 10.9916C33.3645 10.7603 33.6845 10.4195 33.926 9.9691C34.1675 9.50655 34.2882 8.93446 34.2882 8.25281C34.2882 7.57116 34.1675 7.00515 33.926 6.55477C33.6965 6.09223 33.3826 5.74532 32.9841 5.51405C32.5978 5.28277 32.1751 5.16714 31.7163 5.16714C31.2575 5.16714 30.8288 5.28277 30.4304 5.51405C30.044 5.74532 29.73 6.09223 29.4886 6.55477C29.2471 7.00515 29.1263 7.57116 29.1263 8.25281C29.1263 8.93446 29.2471 9.50655 29.4886 9.9691C29.73 10.4195 30.044 10.7603 30.4304 10.9916C30.8168 11.2228 31.2394 11.3385 31.6982 11.3385Z" fill="#080415"/>
<path d="M42.0515 13C41.1701 13 40.3792 12.7992 39.6789 12.3975C38.9906 11.9958 38.4473 11.4419 38.0488 10.736C37.6624 10.0178 37.4692 9.19007 37.4692 8.25281C37.4692 7.31554 37.6624 6.49391 38.0488 5.78792C38.4473 5.06976 38.9906 4.50983 39.6789 4.10815C40.3792 3.70646 41.1701 3.50562 42.0515 3.50562C43.1624 3.50562 44.0922 3.79775 44.8408 4.38202C45.6015 4.96629 46.0905 5.75749 46.3078 6.75562H44.2974C44.1767 6.25655 43.911 5.86704 43.5005 5.58708C43.09 5.30712 42.607 5.16714 42.0515 5.16714C41.5806 5.16714 41.146 5.28886 40.7475 5.5323C40.349 5.76358 40.0291 6.11049 39.7876 6.57303C39.5461 7.02341 39.4253 7.58333 39.4253 8.25281C39.4253 8.92228 39.5461 9.4883 39.7876 9.95084C40.0291 10.4012 40.349 10.7481 40.7475 10.9916C41.146 11.235 41.5806 11.3567 42.0515 11.3567C42.607 11.3567 43.09 11.2168 43.5005 10.9368C43.911 10.6568 44.1767 10.2612 44.2974 9.75H46.3078C46.1026 10.7238 45.6196 11.5089 44.8589 12.1053C44.0982 12.7018 43.1624 13 42.0515 13Z" fill="#080415"/>
<path d="M52.0486 13C51.1913 13 50.4185 12.8052 49.7303 12.4157C49.0541 12.014 48.5168 11.4602 48.1183 10.7542C47.7199 10.036 47.5206 9.20225 47.5206 8.25281C47.5206 7.30337 47.7199 6.47566 48.1183 5.76966C48.5289 5.0515 49.0783 4.49766 49.7665 4.10815C50.4548 3.70646 51.2215 3.50562 52.0667 3.50562C52.924 3.50562 53.6907 3.70646 54.3669 4.10815C55.0552 4.49766 55.5985 5.0515 55.997 5.76966C56.4075 6.47566 56.6128 7.30337 56.6128 8.25281C56.6128 9.20225 56.4075 10.036 55.997 10.7542C55.5985 11.4602 55.0552 12.014 54.3669 12.4157C53.6787 12.8052 52.9059 13 52.0486 13ZM52.0486 11.3385C52.5074 11.3385 52.93 11.2228 53.3164 10.9916C53.7149 10.7603 54.0349 10.4195 54.2764 9.9691C54.5179 9.50655 54.6386 8.93446 54.6386 8.25281C54.6386 7.57116 54.5179 7.00515 54.2764 6.55477C54.0469 6.09223 53.733 5.74532 53.3345 5.51405C52.9482 5.28277 52.5255 5.16714 52.0667 5.16714C51.6079 5.16714 51.1792 5.28277 50.7808 5.51405C50.3944 5.74532 50.0804 6.09223 49.8389 6.55477C49.5975 7.00515 49.4767 7.57116 49.4767 8.25281C49.4767 8.93446 49.5975 9.50655 49.8389 9.9691C50.0804 10.4195 50.3944 10.7603 50.7808 10.9916C51.1672 11.2228 51.5898 11.3385 52.0486 11.3385Z" fill="#080415"/>
<path d="M58.1457 12.7809V3.72472H59.8482L60.0112 5.00281C60.301 4.54026 60.6813 4.17509 61.1522 3.9073C61.6352 3.63951 62.1906 3.50562 62.8185 3.50562C64.2433 3.50562 65.2334 4.07163 65.7889 5.20365C66.1149 4.68024 66.5496 4.26639 67.0929 3.96208C67.6484 3.65777 68.246 3.50562 68.886 3.50562C70.0089 3.50562 70.8904 3.84644 71.5303 4.52809C72.1703 5.20974 72.4903 6.22612 72.4903 7.57725V12.7809H70.5704V7.77809C70.5704 6.02528 69.9063 5.14888 68.5781 5.14888C67.9019 5.14888 67.3465 5.40449 66.9118 5.91573C66.4892 6.42697 66.2779 7.1573 66.2779 8.10674V12.7809H64.358V7.77809C64.358 6.02528 63.6879 5.14888 62.3476 5.14888C61.6835 5.14888 61.1341 5.40449 60.6994 5.91573C60.2768 6.42697 60.0655 7.1573 60.0655 8.10674V12.7809H58.1457Z" fill="#080415"/>
<path d="M74.1931 12.7809V3.72472H75.8956L76.0586 5.00281C76.3484 4.54026 76.7287 4.17509 77.1996 3.9073C77.6826 3.63951 78.2381 3.50562 78.8659 3.50562C80.2907 3.50562 81.2809 4.07163 81.8363 5.20365C82.1623 4.68024 82.597 4.26639 83.1403 3.96208C83.6958 3.65777 84.2935 3.50562 84.9334 3.50562C86.0563 3.50562 86.9378 3.84644 87.5777 4.52809C88.2177 5.20974 88.5377 6.22612 88.5377 7.57725V12.7809H86.6178V7.77809C86.6178 6.02528 85.9537 5.14888 84.6255 5.14888C83.9493 5.14888 83.3939 5.40449 82.9592 5.91573C82.5366 6.42697 82.3253 7.1573 82.3253 8.10674V12.7809H80.4054V7.77809C80.4054 6.02528 79.7353 5.14888 78.395 5.14888C77.7309 5.14888 77.1815 5.40449 76.7468 5.91573C76.3242 6.42697 76.1129 7.1573 76.1129 8.10674V12.7809H74.1931Z" fill="#080415"/>
<path d="M94.4424 13C93.561 13 92.7761 12.8052 92.0879 12.4157C91.4117 12.014 90.8804 11.4602 90.494 10.7542C90.1077 10.0482 89.9145 9.22659 89.9145 8.28932C89.9145 7.33989 90.1016 6.50609 90.4759 5.78792C90.8623 5.06976 91.3936 4.50983 92.0698 4.10815C92.758 3.70646 93.5549 3.50562 94.4605 3.50562C95.342 3.50562 96.1087 3.70646 96.7607 4.10815C97.4128 4.49766 97.9199 5.02107 98.2822 5.67837C98.6444 6.33567 98.8255 7.05993 98.8255 7.85112C98.8255 7.97285 98.8195 8.10674 98.8074 8.25281C98.8074 8.3867 98.8014 8.53886 98.7893 8.70927H91.7981C91.8585 9.58567 92.1422 10.2551 92.6494 10.7177C93.1686 11.1681 93.7663 11.3933 94.4424 11.3933C94.9858 11.3933 95.4386 11.2715 95.8008 11.0281C96.1751 10.7725 96.4529 10.4316 96.634 10.0056H98.5538C98.3123 10.8577 97.8294 11.5698 97.1049 12.1419C96.3925 12.714 95.505 13 94.4424 13ZM94.4424 5.0941C93.8025 5.0941 93.235 5.28886 92.7399 5.67837C92.2449 6.05571 91.943 6.62781 91.8343 7.39466H96.9056C96.8694 6.68867 96.6219 6.12875 96.1631 5.71489C95.7042 5.30103 95.1307 5.0941 94.4424 5.0941Z" fill="#080415"/>
<path d="M100.274 12.7809V3.72472H101.995L102.158 5.44101C102.472 4.84457 102.906 4.37594 103.462 4.03511C104.029 3.68212 104.712 3.50562 105.509 3.50562V5.5323H104.983C104.452 5.5323 103.975 5.6236 103.552 5.80618C103.142 5.97659 102.81 6.27481 102.556 6.70084C102.315 7.1147 102.194 7.69288 102.194 8.43539V12.7809H100.274Z" fill="#080415"/>
<path d="M110.62 13C109.738 13 108.948 12.7992 108.247 12.3975C107.559 11.9958 107.016 11.4419 106.617 10.736C106.231 10.0178 106.038 9.19007 106.038 8.25281C106.038 7.31554 106.231 6.49391 106.617 5.78792C107.016 5.06976 107.559 4.50983 108.247 4.10815C108.948 3.70646 109.738 3.50562 110.62 3.50562C111.731 3.50562 112.66 3.79775 113.409 4.38202C114.17 4.96629 114.659 5.75749 114.876 6.75562H112.866C112.745 6.25655 112.479 5.86704 112.069 5.58708C111.658 5.30712 111.175 5.16714 110.62 5.16714C110.149 5.16714 109.714 5.28886 109.316 5.5323C108.917 5.76358 108.597 6.11049 108.356 6.57303C108.114 7.02341 107.994 7.58333 107.994 8.25281C107.994 8.92228 108.114 9.4883 108.356 9.95084C108.597 10.4012 108.917 10.7481 109.316 10.9916C109.714 11.235 110.149 11.3567 110.62 11.3567C111.175 11.3567 111.658 11.2168 112.069 10.9368C112.479 10.6568 112.745 10.2612 112.866 9.75H114.876C114.671 10.7238 114.188 11.5089 113.427 12.1053C112.667 12.7018 111.731 13 110.62 13Z" fill="#080415"/>
<path d="M120.617 13C119.735 13 118.951 12.8052 118.262 12.4157C117.586 12.014 117.055 11.4602 116.669 10.7542C116.282 10.0482 116.089 9.22659 116.089 8.28932C116.089 7.33989 116.276 6.50609 116.65 5.78792C117.037 5.06976 117.568 4.50983 118.244 4.10815C118.933 3.70646 119.729 3.50562 120.635 3.50562C121.516 3.50562 122.283 3.70646 122.935 4.10815C123.587 4.49766 124.094 5.02107 124.457 5.67837C124.819 6.33567 125 7.05993 125 7.85112C125 7.97285 124.994 8.10674 124.982 8.25281C124.982 8.3867 124.976 8.53886 124.964 8.70927H117.973C118.033 9.58567 118.317 10.2551 118.824 10.7177C119.343 11.1681 119.941 11.3933 120.617 11.3933C121.16 11.3933 121.613 11.2715 121.975 11.0281C122.35 10.7725 122.627 10.4316 122.808 10.0056H124.728C124.487 10.8577 124.004 11.5698 123.279 12.1419C122.567 12.714 121.679 13 120.617 13ZM120.617 5.0941C119.977 5.0941 119.409 5.28886 118.914 5.67837C118.419 6.05571 118.117 6.62781 118.009 7.39466H123.08C123.044 6.68867 122.796 6.12875 122.338 5.71489C121.879 5.30103 121.305 5.0941 120.617 5.0941Z" fill="#080415"/>
</svg>
