<svg width="60" height="17" viewBox="0 0 60 17" fill="none" xmlns="http://www.w3.org/2000/svg">
<path d="M4.80743 13.2383C3.90716 13.2383 3.09092 13.0635 2.3587 12.7138C1.63849 12.3521 1.06232 11.8035 0.630187 11.0681C0.210062 10.3326 0 9.39823 0 8.26489V0.361701H1.90857V8.28298C1.90857 9.3922 2.17265 10.206 2.7008 10.7245C3.22896 11.2429 3.94317 11.5021 4.84344 11.5021C5.7317 11.5021 6.43991 11.2429 6.96807 10.7245C7.49623 10.206 7.7603 9.3922 7.7603 8.28298V0.361701H9.66887V8.26489C9.66887 9.39823 9.44681 10.3326 9.00268 11.0681C8.57055 11.8035 7.98237 12.3521 7.23815 12.7138C6.50593 13.0635 5.69569 13.2383 4.80743 13.2383Z" fill="#080415"/>
<path d="M11.5049 17V4.05106H13.2154L13.4134 5.44362C13.7015 5.02163 14.0976 4.64787 14.6018 4.32234C15.1059 3.99681 15.7541 3.83404 16.5464 3.83404C17.4106 3.83404 18.1728 4.03901 18.833 4.44894C19.4932 4.85886 20.0094 5.4195 20.3815 6.13085C20.7656 6.8422 20.9577 7.65 20.9577 8.55426C20.9577 9.45851 20.7656 10.2663 20.3815 10.9777C20.0094 11.677 19.4932 12.2316 18.833 12.6415C18.1728 13.0394 17.4046 13.2383 16.5283 13.2383C15.8321 13.2383 15.214 13.0996 14.6738 12.8223C14.1456 12.545 13.7255 12.1532 13.4134 11.6468V17H11.5049ZM16.2043 11.5745C17.0205 11.5745 17.6927 11.2972 18.2208 10.7426C18.749 10.1759 19.0131 9.44042 19.0131 8.53617C19.0131 7.94539 18.893 7.42092 18.653 6.96277C18.4129 6.50461 18.0828 6.14894 17.6627 5.89574C17.2426 5.6305 16.7564 5.49787 16.2043 5.49787C15.388 5.49787 14.7158 5.78121 14.1877 6.34787C13.6715 6.91454 13.4134 7.64397 13.4134 8.53617C13.4134 9.44042 13.6715 10.1759 14.1877 10.7426C14.7158 11.2972 15.388 11.5745 16.2043 11.5745Z" fill="#080415"/>
<path d="M23.9302 13.0213L21.3015 4.05106H23.21L24.9385 10.8149L26.8831 4.05106H29.0077L30.9523 10.8149L32.6808 4.05106H34.5894L31.9606 13.0213H29.998L27.9454 5.96808L25.8928 13.0213H23.9302Z" fill="#080415"/>
<path d="M39.4646 13.2383C38.6124 13.2383 37.8441 13.0454 37.1599 12.6596C36.4877 12.2617 35.9536 11.7131 35.5575 11.0138C35.1613 10.3025 34.9633 9.47659 34.9633 8.53617C34.9633 7.59574 35.1613 6.77589 35.5575 6.0766C35.9656 5.36525 36.5117 4.81667 37.196 4.43085C37.8802 4.03298 38.6424 3.83404 39.4826 3.83404C40.3349 3.83404 41.0971 4.03298 41.7693 4.43085C42.4535 4.81667 42.9937 5.36525 43.3898 6.0766C43.7979 6.77589 44.002 7.59574 44.002 8.53617C44.002 9.47659 43.7979 10.3025 43.3898 11.0138C42.9937 11.7131 42.4535 12.2617 41.7693 12.6596C41.0851 13.0454 40.3169 13.2383 39.4646 13.2383ZM39.4646 11.5926C39.9208 11.5926 40.3409 11.478 40.725 11.2489C41.1211 11.0199 41.4392 10.6823 41.6793 10.2362C41.9194 9.77801 42.0394 9.21135 42.0394 8.53617C42.0394 7.86099 41.9194 7.30035 41.6793 6.85425C41.4512 6.3961 41.1391 6.05248 40.743 5.8234C40.3589 5.59433 39.9388 5.47979 39.4826 5.47979C39.0265 5.47979 38.6004 5.59433 38.2043 5.8234C37.8201 6.05248 37.508 6.3961 37.268 6.85425C37.0279 7.30035 36.9079 7.86099 36.9079 8.53617C36.9079 9.21135 37.0279 9.77801 37.268 10.2362C37.508 10.6823 37.8201 11.0199 38.2043 11.2489C38.5884 11.478 39.0085 11.5926 39.4646 11.5926Z" fill="#080415"/>
<path d="M45.5258 13.0213V4.05106H47.2363L47.3984 5.75106C47.7105 5.16028 48.1426 4.6961 48.6948 4.35851C49.2589 4.00886 49.9371 3.83404 50.7294 3.83404V5.84149H50.2072C49.679 5.84149 49.2049 5.93191 48.7848 6.11277C48.3767 6.28156 48.0466 6.57695 47.7945 6.99894C47.5544 7.40886 47.4344 7.98156 47.4344 8.71702V13.0213H45.5258Z" fill="#080415"/>
<path d="M51.8256 13.0213V0H53.7341V7.75851L57.1552 4.05106H59.4418L55.6427 8.12021L60 13.0213H57.5873L53.7341 8.42766V13.0213H51.8256Z" fill="#080415"/>
</svg>
