<svg width="97" height="13" viewBox="0 0 97 13" fill="none" xmlns="http://www.w3.org/2000/svg">
<path d="M3.39455 12.7992L0 0H2.04751L4.54403 10.5899L7.41772 0H9.51911L12.303 10.5899L14.7995 0H16.847L13.3986 12.7809H11.1715L8.42352 2.75702L5.58574 12.7809L3.39455 12.7992Z" fill="#080415"/>
<path d="M20.0534 13C19.2991 13 18.6764 12.8722 18.1855 12.6166C17.6946 12.361 17.3294 12.0262 17.0899 11.6124C16.8504 11.1863 16.7307 10.7238 16.7307 10.2247C16.7307 9.34831 17.066 8.65449 17.7365 8.14326C18.407 7.63202 19.3649 7.3764 20.6102 7.3764H22.9451V7.21208C22.9451 6.50609 22.7535 5.97659 22.3703 5.6236C21.9992 5.2706 21.5142 5.0941 20.9155 5.0941C20.3887 5.0941 19.9277 5.228 19.5326 5.49579C19.1494 5.7514 18.9159 6.13483 18.8321 6.64607H16.9283C16.9881 5.98876 17.2037 5.42884 17.5749 4.96629C17.958 4.49157 18.437 4.13249 19.0117 3.88905C19.5984 3.63343 20.239 3.50562 20.9335 3.50562C22.1788 3.50562 23.1426 3.84036 23.8251 4.50983C24.5076 5.16714 24.8489 6.06788 24.8489 7.21208V12.7809H23.1965L23.0349 11.2289C22.7834 11.728 22.4182 12.1479 21.9393 12.4888C21.4603 12.8296 20.8317 13 20.0534 13ZM20.4306 11.4298C20.9455 11.4298 21.3765 11.3081 21.7238 11.0646C22.083 10.809 22.3584 10.4743 22.5499 10.0604C22.7535 9.64654 22.8792 9.19007 22.9271 8.69101H20.8078C20.0534 8.69101 19.5146 8.82491 19.1913 9.0927C18.88 9.36049 18.7243 9.69522 18.7243 10.0969C18.7243 10.5108 18.874 10.8394 19.1734 11.0829C19.4847 11.3141 19.9037 11.4298 20.4306 11.4298Z" fill="#080415"/>
<path d="M26.5299 12.7809V3.72472H28.2362L28.3978 5.44101C28.7091 4.84457 29.1402 4.37594 29.691 4.03511C30.2537 3.68212 30.9302 3.50562 31.7205 3.50562V5.5323H31.1997C30.6728 5.5323 30.1998 5.6236 29.7808 5.80618C29.3737 5.97659 29.0444 6.27481 28.7929 6.70084C28.5535 7.1147 28.4337 7.69288 28.4337 8.43539V12.7809H26.5299Z" fill="#080415"/>
<path d="M32.814 12.7809V3.72472H34.5023L34.646 5.3132C34.9214 4.75328 35.3225 4.31507 35.8493 3.9986C36.3882 3.66994 37.0048 3.50562 37.6993 3.50562C38.7769 3.50562 39.6211 3.84644 40.2317 4.52809C40.8544 5.20974 41.1657 6.22612 41.1657 7.57725V12.7809H39.2798V7.77809C39.2798 6.02528 38.5734 5.14888 37.1605 5.14888C36.454 5.14888 35.8673 5.40449 35.4003 5.91573C34.9453 6.42697 34.7178 7.1573 34.7178 8.10674V12.7809H32.814Z" fill="#080415"/>
<path d="M47.036 13C46.1619 13 45.3836 12.8052 44.7011 12.4157C44.0306 12.014 43.5037 11.4602 43.1206 10.7542C42.7374 10.0482 42.5458 9.22659 42.5458 8.28932C42.5458 7.33989 42.7314 6.50609 43.1026 5.78792C43.4858 5.06976 44.0126 4.50983 44.6831 4.10815C45.3656 3.70646 46.1559 3.50562 47.0539 3.50562C47.928 3.50562 48.6884 3.70646 49.3349 4.10815C49.9815 4.49766 50.4844 5.02107 50.8436 5.67837C51.2028 6.33567 51.3824 7.05993 51.3824 7.85112C51.3824 7.97285 51.3765 8.10674 51.3645 8.25281C51.3645 8.3867 51.3585 8.53886 51.3465 8.70927H44.4137C44.4736 9.58567 44.755 10.2551 45.2579 10.7177C45.7728 11.1681 46.3655 11.3933 47.036 11.3933C47.5748 11.3933 48.0238 11.2715 48.383 11.0281C48.7542 10.7725 49.0296 10.4316 49.2092 10.0056H51.113C50.8736 10.8577 50.3946 11.5698 49.6762 12.1419C48.9697 12.714 48.0897 13 47.036 13ZM47.036 5.0941C46.4014 5.0941 45.8386 5.28886 45.3477 5.67837C44.8568 6.05571 44.5574 6.62781 44.4497 7.39466H49.4786C49.4427 6.68867 49.1972 6.12875 48.7422 5.71489C48.2872 5.30103 47.7185 5.0941 47.036 5.0941Z" fill="#080415"/>
<path d="M52.819 12.7809V3.72472H54.5253L54.6869 5.44101C54.9982 4.84457 55.4293 4.37594 55.9801 4.03511C56.5428 3.68212 57.2194 3.50562 58.0096 3.50562V5.5323H57.4888C56.9619 5.5323 56.489 5.6236 56.0699 5.80618C55.6628 5.97659 55.3335 6.27481 55.082 6.70084C54.8426 7.1147 54.7228 7.69288 54.7228 8.43539V12.7809H52.819Z" fill="#080415"/>
<path d="M63.1614 12.7809V0H67.903C69.2081 0 70.1959 0.310394 70.8665 0.93118C71.537 1.55197 71.8722 2.33099 71.8722 3.26826C71.8722 4.0838 71.6567 4.73502 71.2257 5.22191C70.7946 5.69663 70.2738 6.01919 69.6631 6.18961C70.142 6.28698 70.5671 6.48174 70.9383 6.77388C71.3215 7.06601 71.6208 7.43118 71.8363 7.86938C72.0519 8.30758 72.1596 8.7823 72.1596 9.29354C72.1596 9.95084 71.998 10.5473 71.6747 11.0829C71.3634 11.6063 70.9024 12.0201 70.2917 12.3244C69.6811 12.6287 68.9327 12.7809 68.0466 12.7809H63.1614ZM65.0652 5.47753H67.6695C68.3999 5.47753 68.9566 5.30712 69.3398 4.96629C69.723 4.6133 69.9145 4.13249 69.9145 3.52388C69.9145 2.92743 69.723 2.45272 69.3398 2.09972C68.9686 1.74672 68.3999 1.57023 67.6335 1.57023H65.0652V5.47753ZM65.0652 11.1924H67.7952C68.5615 11.1924 69.1542 11.0098 69.5733 10.6447C70.0043 10.2795 70.2199 9.76826 70.2199 9.11095C70.2199 8.45365 69.9984 7.93633 69.5553 7.55899C69.1123 7.16948 68.5136 6.97472 67.7593 6.97472H65.0652V11.1924Z" fill="#080415"/>
<path d="M73.6358 12.7809V3.72472H75.342L75.5037 5.44101C75.815 4.84457 76.246 4.37594 76.7968 4.03511C77.3596 3.68212 78.0361 3.50562 78.8264 3.50562V5.5323H78.3055C77.7787 5.5323 77.3057 5.6236 76.8866 5.80618C76.4795 5.97659 76.1502 6.27481 75.8988 6.70084C75.6593 7.1147 75.5396 7.69288 75.5396 8.43539V12.7809H73.6358Z" fill="#080415"/>
<path d="M83.8412 13C82.991 13 82.2247 12.8052 81.5422 12.4157C80.8717 12.014 80.3388 11.4602 79.9437 10.7542C79.5486 10.036 79.351 9.20225 79.351 8.25281C79.351 7.30337 79.5486 6.47566 79.9437 5.76966C80.3508 5.0515 80.8956 4.49766 81.5781 4.10815C82.2606 3.70646 83.021 3.50562 83.8591 3.50562C84.7093 3.50562 85.4696 3.70646 86.1401 4.10815C86.8226 4.49766 87.3614 5.0515 87.7566 5.76966C88.1637 6.47566 88.3672 7.30337 88.3672 8.25281C88.3672 9.20225 88.1637 10.036 87.7566 10.7542C87.3614 11.4602 86.8226 12.014 86.1401 12.4157C85.4576 12.8052 84.6913 13 83.8412 13ZM83.8412 11.3385C84.2962 11.3385 84.7152 11.2228 85.0984 10.9916C85.4935 10.7603 85.8108 10.4195 86.0503 9.9691C86.2898 9.50655 86.4095 8.93446 86.4095 8.25281C86.4095 7.57116 86.2898 7.00515 86.0503 6.55477C85.8228 6.09223 85.5115 5.74532 85.1164 5.51405C84.7332 5.28277 84.3141 5.16714 83.8591 5.16714C83.4041 5.16714 82.979 5.28277 82.5839 5.51405C82.2008 5.74532 81.8894 6.09223 81.65 6.55477C81.4105 7.00515 81.2908 7.57116 81.2908 8.25281C81.2908 8.93446 81.4105 9.50655 81.65 9.9691C81.8894 10.4195 82.2008 10.7603 82.5839 10.9916C82.9671 11.2228 83.3862 11.3385 83.8412 11.3385Z" fill="#080415"/>
<path d="M93.4435 13C92.3179 13 91.39 12.72 90.6596 12.1601C89.9292 11.6002 89.5101 10.8577 89.4023 9.93258H91.3241C91.4199 10.3464 91.6474 10.7055 92.0066 11.0098C92.3658 11.302 92.8388 11.448 93.4255 11.448C94.0003 11.448 94.4193 11.3263 94.6828 11.0829C94.9462 10.8394 95.0779 10.5595 95.0779 10.243C95.0779 9.78043 94.8923 9.47004 94.5211 9.3118C94.1619 9.14139 93.659 8.98923 93.0124 8.85534C92.5095 8.74579 92.0066 8.59972 91.5037 8.41714C91.0128 8.23455 90.5997 7.97893 90.2645 7.65028C89.9412 7.30946 89.7795 6.853 89.7795 6.2809C89.7795 5.4897 90.0789 4.8324 90.6776 4.30899C91.2762 3.77341 92.1144 3.50562 93.192 3.50562C94.1859 3.50562 94.9881 3.74906 95.5987 4.23596C96.2214 4.72285 96.5866 5.41058 96.6944 6.29916H94.8624C94.8025 5.90964 94.6229 5.60534 94.3235 5.38624C94.0362 5.16713 93.647 5.05758 93.1561 5.05758C92.6772 5.05758 92.306 5.16105 92.0425 5.36798C91.7791 5.56273 91.6474 5.81835 91.6474 6.13483C91.6474 6.45131 91.827 6.70084 92.1862 6.88343C92.5574 7.06601 93.0424 7.23034 93.641 7.3764C94.2397 7.5103 94.7905 7.66854 95.2934 7.85112C95.8083 8.02153 96.2214 8.27715 96.5327 8.61798C96.844 8.9588 96.9997 9.45786 96.9997 10.1152C97.0117 10.9429 96.6943 11.6306 96.0478 12.1784C95.4132 12.7261 94.5451 13 93.4435 13Z" fill="#080415"/>
</svg>
