<svg width="56" height="17" viewBox="0 0 56 17" fill="none" xmlns="http://www.w3.org/2000/svg">
<path d="M5.97924 13.0714C4.77976 13.0714 3.73172 12.8036 2.83514 12.2679C1.93856 11.7321 1.24189 10.9821 0.745133 10.0179C0.248378 9.05357 0 7.92857 0 6.64286C0 5.36905 0.254436 4.24405 0.763307 3.26786C1.27218 2.29167 1.99308 1.52976 2.92601 0.982143C3.87106 0.422619 4.98573 0.142857 6.27002 0.142857C7.72394 0.142857 8.93554 0.488095 9.90482 1.17857C10.8741 1.86905 11.5041 2.82143 11.7949 4.03571H9.61404C9.42018 3.36905 9.03853 2.84524 8.46908 2.46429C7.89962 2.08333 7.16661 1.89286 6.27002 1.89286C4.93726 1.89286 3.88923 2.31548 3.12592 3.16071C2.36262 4.00595 1.98096 5.17262 1.98096 6.66071C1.98096 8.14881 2.35656 9.30952 3.10775 10.1429C3.85894 10.9762 4.85851 11.3929 6.10646 11.3929C7.36652 11.3929 8.31157 11.0417 8.9416 10.3393C9.58375 9.6369 9.95934 8.70238 10.0684 7.53571H6.61533V6.07143H12.013V12.8571H10.2501L10.0866 11.0179C9.6625 11.6726 9.1294 12.1786 8.48725 12.5357C7.8451 12.8929 7.0091 13.0714 5.97924 13.0714Z" fill="#080415"/>
<path d="M17.9495 13.0714C17.0893 13.0714 16.3138 12.881 15.6232 12.5C14.9447 12.1071 14.4056 11.5655 14.0057 10.875C13.6059 10.1726 13.406 9.35714 13.406 8.42857C13.406 7.5 13.6059 6.69048 14.0057 6C14.4177 5.29762 14.969 4.75595 15.6596 4.375C16.3502 3.98214 17.1196 3.78571 17.9677 3.78571C18.8279 3.78571 19.5973 3.98214 20.2758 4.375C20.9664 4.75595 21.5116 5.29762 21.9114 6C22.3234 6.69048 22.5293 7.5 22.5293 8.42857C22.5293 9.35714 22.3234 10.1726 21.9114 10.875C21.5116 11.5655 20.9664 12.1071 20.2758 12.5C19.5852 12.881 18.8097 13.0714 17.9495 13.0714ZM17.9495 11.4464C18.4099 11.4464 18.834 11.3333 19.2217 11.1071C19.6215 10.881 19.9426 10.5476 20.1849 10.1071C20.4272 9.65476 20.5484 9.09524 20.5484 8.42857C20.5484 7.7619 20.4272 7.20833 20.1849 6.76786C19.9547 6.31548 19.6397 5.97619 19.2399 5.75C18.8521 5.52381 18.4281 5.41071 17.9677 5.41071C17.5073 5.41071 17.0772 5.52381 16.6773 5.75C16.2896 5.97619 15.9746 6.31548 15.7323 6.76786C15.49 7.20833 15.3688 7.7619 15.3688 8.42857C15.3688 9.09524 15.49 9.65476 15.7323 10.1071C15.9746 10.5476 16.2896 10.881 16.6773 11.1071C17.065 11.3333 17.4891 11.4464 17.9495 11.4464Z" fill="#080415"/>
<path d="M28.2838 13.0714C27.4236 13.0714 26.6482 12.881 25.9576 12.5C25.2791 12.1071 24.7399 11.5655 24.3401 10.875C23.9402 10.1726 23.7403 9.35714 23.7403 8.42857C23.7403 7.5 23.9402 6.69048 24.3401 6C24.752 5.29762 25.3033 4.75595 25.9939 4.375C26.6845 3.98214 27.4539 3.78571 28.302 3.78571C29.1622 3.78571 29.9316 3.98214 30.6101 4.375C31.3007 4.75595 31.8459 5.29762 32.2458 6C32.6577 6.69048 32.8637 7.5 32.8637 8.42857C32.8637 9.35714 32.6577 10.1726 32.2458 10.875C31.8459 11.5655 31.3007 12.1071 30.6101 12.5C29.9195 12.881 29.1441 13.0714 28.2838 13.0714ZM28.2838 11.4464C28.7442 11.4464 29.1683 11.3333 29.556 11.1071C29.9558 10.881 30.2769 10.5476 30.5192 10.1071C30.7615 9.65476 30.8827 9.09524 30.8827 8.42857C30.8827 7.7619 30.7615 7.20833 30.5192 6.76786C30.289 6.31548 29.974 5.97619 29.5742 5.75C29.1865 5.52381 28.7624 5.41071 28.302 5.41071C27.8416 5.41071 27.4115 5.52381 27.0116 5.75C26.6239 5.97619 26.3089 6.31548 26.0666 6.76786C25.8243 7.20833 25.7031 7.7619 25.7031 8.42857C25.7031 9.09524 25.8243 9.65476 26.0666 10.1071C26.3089 10.5476 26.6239 10.881 27.0116 11.1071C27.3994 11.3333 27.8234 11.4464 28.2838 11.4464Z" fill="#080415"/>
<path d="M37.6119 10.1429C37.1394 10.1429 36.7032 10.0893 36.3034 9.98214L35.5219 10.7321C35.6552 10.8155 35.8187 10.8869 36.0126 10.9464C36.2064 11.006 36.4791 11.0595 36.8304 11.1071C37.1818 11.1548 37.6604 11.2024 38.2662 11.25C39.4656 11.3571 40.3319 11.6429 40.865 12.1071C41.3981 12.5595 41.6647 13.1667 41.6647 13.9286C41.6647 14.4524 41.5193 14.9464 41.2285 15.4107C40.9499 15.8869 40.5076 16.2679 39.9018 16.5536C39.3081 16.8512 38.5448 17 37.6119 17C36.3518 17 35.328 16.7619 34.5405 16.2857C33.7651 15.8214 33.3774 15.1131 33.3774 14.1607C33.3774 13.7917 33.4743 13.4226 33.6681 13.0536C33.8741 12.6964 34.1952 12.3571 34.6314 12.0357C34.3769 11.9286 34.1528 11.8155 33.9589 11.6964C33.7772 11.5655 33.6136 11.4345 33.4682 11.3036V10.875L35.0312 9.30357C34.3285 8.70833 33.9771 7.92857 33.9771 6.96429C33.9771 6.38095 34.1164 5.85119 34.3951 5.375C34.6859 4.8869 35.1039 4.5 35.6491 4.21429C36.1943 3.92857 36.8486 3.78571 37.6119 3.78571C38.1208 3.78571 38.5933 3.85714 39.0295 4H42.3917V5.25L40.7924 5.33929C41.0831 5.82738 41.2285 6.36905 41.2285 6.96429C41.2285 7.55952 41.0831 8.09524 40.7924 8.57143C40.5137 9.04762 40.1017 9.42857 39.5565 9.71429C39.0234 10 38.3752 10.1429 37.6119 10.1429ZM37.6119 8.66071C38.1692 8.66071 38.6175 8.51786 38.9568 8.23214C39.3081 7.93452 39.4838 7.51786 39.4838 6.98214C39.4838 6.43452 39.3081 6.01786 38.9568 5.73214C38.6175 5.44643 38.1692 5.30357 37.6119 5.30357C37.0424 5.30357 36.582 5.44643 36.2307 5.73214C35.8914 6.01786 35.7218 6.43452 35.7218 6.98214C35.7218 7.51786 35.8914 7.93452 36.2307 8.23214C36.582 8.51786 37.0424 8.66071 37.6119 8.66071ZM35.1948 13.9821C35.1948 14.494 35.425 14.875 35.8854 15.125C36.3458 15.3869 36.9213 15.5179 37.6119 15.5179C38.2783 15.5179 38.8174 15.375 39.2294 15.0893C39.6413 14.8155 39.8473 14.4464 39.8473 13.9821C39.8473 13.6369 39.708 13.3393 39.4293 13.0893C39.1506 12.8512 38.6236 12.7024 37.8482 12.6429C37.2666 12.6071 36.7517 12.5536 36.3034 12.4821C35.8793 12.7083 35.5885 12.9524 35.431 13.2143C35.2735 13.4762 35.1948 13.7321 35.1948 13.9821Z" fill="#080415"/>
<path d="M43.5647 12.8571V0H45.4912V12.8571H43.5647Z" fill="#080415"/>
<path d="M51.6019 13.0714C50.7174 13.0714 49.9299 12.881 49.2393 12.5C48.5608 12.1071 48.0277 11.5655 47.64 10.875C47.2523 10.1845 47.0584 9.38095 47.0584 8.46428C47.0584 7.53571 47.2462 6.72024 47.6218 6.01786C48.0095 5.31548 48.5426 4.76786 49.2211 4.375C49.9117 3.98214 50.7114 3.78571 51.6201 3.78571C52.5045 3.78571 53.2739 3.98214 53.9282 4.375C54.5824 4.75595 55.0913 5.26786 55.4548 5.91071C55.8183 6.55357 56 7.2619 56 8.03571C56 8.15476 55.9939 8.28571 55.9818 8.42857C55.9818 8.55952 55.9758 8.70833 55.9636 8.875H48.9485C49.0091 9.73214 49.2938 10.3869 49.8027 10.8393C50.3237 11.2798 50.9234 11.5 51.6019 11.5C52.1471 11.5 52.6015 11.381 52.9649 11.1429C53.3405 10.8929 53.6192 10.5595 53.8009 10.1429H55.7274C55.4851 10.9762 55.0004 11.6726 54.2735 12.2321C53.5586 12.7917 52.6681 13.0714 51.6019 13.0714ZM51.6019 5.33929C50.9597 5.33929 50.3903 5.52976 49.8935 5.91071C49.3968 6.27976 49.0939 6.83929 48.9848 7.58929H54.0736C54.0372 6.89881 53.7888 6.35119 53.3284 5.94643C52.868 5.54167 52.2925 5.33929 51.6019 5.33929Z" fill="#080415"/>
</svg>
