<svg width="53" height="13" viewBox="0 0 53 13" fill="none" xmlns="http://www.w3.org/2000/svg">
<path d="M0 12.7869L4.66665 0.35519H6.76483L11.3953 12.7869H9.36947L8.2842 9.75H3.1111L2.02583 12.7869H0ZM3.65373 8.2582H7.74157L5.69765 2.5929L3.65373 8.2582Z" fill="#080415"/>
<path d="M16.1746 13C15.3064 13 14.5406 12.7987 13.8774 12.3962C13.2142 11.9936 12.6957 11.4431 12.3219 10.7445C11.9481 10.046 11.7611 9.25273 11.7611 8.36475C11.7611 7.47678 11.9481 6.68944 12.3219 6.00273C12.6957 5.30419 13.2142 4.75956 13.8774 4.36885C14.5527 3.9663 15.3244 3.76503 16.1927 3.76503C16.9041 3.76503 17.5251 3.90118 18.0557 4.1735C18.5983 4.44581 19.0204 4.8306 19.3218 5.32787V0H21.2391V12.7869H19.5208L19.3218 11.4194C19.0324 11.8338 18.6345 12.2008 18.128 12.5205C17.6216 12.8402 16.9704 13 16.1746 13ZM16.5182 11.3661C17.3382 11.3661 18.0075 11.0879 18.526 10.5314C19.0566 9.97495 19.3218 9.25865 19.3218 8.38251C19.3218 7.49453 19.0566 6.77823 18.526 6.23361C18.0075 5.67714 17.3382 5.39891 16.5182 5.39891C15.6983 5.39891 15.023 5.67714 14.4924 6.23361C13.9618 6.77823 13.6965 7.49453 13.6965 8.38251C13.6965 8.96266 13.8171 9.47769 14.0583 9.9276C14.2995 10.3775 14.6311 10.7327 15.0531 10.9932C15.4872 11.2418 15.9756 11.3661 16.5182 11.3661Z" fill="#080415"/>
<path d="M27.3103 13C26.4541 13 25.6824 12.8106 24.995 12.4317C24.3198 12.041 23.7832 11.5023 23.3852 10.8156C22.9873 10.117 22.7883 9.30601 22.7883 8.38251C22.7883 7.45902 22.9873 6.65392 23.3852 5.96721C23.7952 5.26867 24.3439 4.72996 25.0312 4.35109C25.7185 3.96038 26.4843 3.76503 27.3284 3.76503C28.1845 3.76503 28.9502 3.96038 29.6255 4.35109C30.3128 4.72996 30.8555 5.26867 31.2534 5.96721C31.6634 6.65392 31.8684 7.45902 31.8684 8.38251C31.8684 9.30601 31.6634 10.117 31.2534 10.8156C30.8555 11.5023 30.3128 12.041 29.6255 12.4317C28.9382 12.8106 28.1664 13 27.3103 13ZM27.3103 11.3839C27.7685 11.3839 28.1905 11.2714 28.5764 11.0464C28.9743 10.8215 29.2939 10.49 29.5351 10.0519C29.7762 9.602 29.8968 9.04554 29.8968 8.38251C29.8968 7.71949 29.7762 7.16894 29.5351 6.73087C29.306 6.28096 28.9924 5.94353 28.5945 5.71858C28.2086 5.49362 27.7866 5.38115 27.3284 5.38115C26.8701 5.38115 26.4421 5.49362 26.0441 5.71858C25.6583 5.94353 25.3447 6.28096 25.1036 6.73087C24.8624 7.16894 24.7418 7.71949 24.7418 8.38251C24.7418 9.04554 24.8624 9.602 25.1036 10.0519C25.3447 10.49 25.6583 10.8215 26.0441 11.0464C26.43 11.2714 26.8521 11.3839 27.3103 11.3839Z" fill="#080415"/>
<path d="M38.4457 13C37.7463 13 37.1253 12.8638 36.5827 12.5915C36.0521 12.3192 35.63 11.9344 35.3165 11.4372L35.1175 12.7869H33.3992V0H35.3165V5.34563C35.6059 4.93124 36.0039 4.56421 36.5103 4.24453C37.0168 3.92486 37.6679 3.76503 38.4638 3.76503C39.332 3.76503 40.0977 3.9663 40.7609 4.36885C41.4242 4.7714 41.9427 5.32195 42.3165 6.02049C42.7024 6.71903 42.8953 7.51229 42.8953 8.40027C42.8953 9.28825 42.7024 10.0815 42.3165 10.7801C41.9427 11.4668 41.4242 12.0114 40.7609 12.4139C40.0977 12.8046 39.326 13 38.4457 13ZM38.1201 11.3661C38.9401 11.3661 39.6154 11.0938 40.146 10.5492C40.6765 9.99271 40.9418 9.27049 40.9418 8.38251C40.9418 7.80237 40.8212 7.28734 40.5801 6.83743C40.3389 6.38752 40.0073 6.03825 39.5852 5.78962C39.1632 5.52914 38.6748 5.39891 38.1201 5.39891C37.3001 5.39891 36.6249 5.67714 36.0943 6.23361C35.5758 6.79007 35.3165 7.50637 35.3165 8.38251C35.3165 9.27049 35.5758 9.99271 36.0943 10.5492C36.6249 11.0938 37.3001 11.3661 38.1201 11.3661Z" fill="#080415"/>
<path d="M48.6228 13C47.7425 13 46.9587 12.8106 46.2713 12.4317C45.5961 12.041 45.0655 11.5023 44.6796 10.8156C44.2938 10.1289 44.1008 9.32969 44.1008 8.41803C44.1008 7.49453 44.2877 6.68352 44.6615 5.98497C45.0474 5.28643 45.578 4.7418 46.2533 4.35109C46.9406 3.96038 47.7365 3.76503 48.6408 3.76503C49.5211 3.76503 50.2868 3.96038 50.938 4.35109C51.5891 4.72996 52.0956 5.23907 52.4574 5.87842C52.8191 6.51776 53 7.22222 53 7.9918C53 8.1102 52.994 8.24044 52.9819 8.38251C52.9819 8.51275 52.9759 8.66075 52.9638 8.8265H45.9819C46.0422 9.67896 46.3256 10.3301 46.8321 10.7801C47.3506 11.2181 47.9475 11.4372 48.6228 11.4372C49.1654 11.4372 49.6176 11.3188 49.9793 11.082C50.3532 10.8333 50.6305 10.5018 50.8114 10.0874H52.7287C52.4875 10.9162 52.0052 11.6088 51.2817 12.1653C50.5702 12.7218 49.6839 13 48.6228 13ZM48.6228 5.31011C47.9837 5.31011 47.4169 5.49954 46.9225 5.87842C46.4281 6.24545 46.1266 6.80191 46.0181 7.54781H51.0827C51.0465 6.86111 50.7993 6.31648 50.3411 5.91393C49.8829 5.51138 49.3101 5.31011 48.6228 5.31011Z" fill="#080415"/>
</svg>
