<svg width="49" height="13" viewBox="0 0 49 13" fill="none" xmlns="http://www.w3.org/2000/svg">
<path d="M6.08453 13C4.83272 13 3.74942 12.7307 2.83463 12.192C1.93188 11.6413 1.23376 10.8812 0.740255 9.9116C0.246752 8.93002 0 7.7988 0 6.51796C0 5.22514 0.246752 4.09392 0.740255 3.12431C1.23376 2.14273 1.93188 1.37661 2.83463 0.825967C3.74942 0.275322 4.83272 0 6.08453 0C7.56504 0 8.77473 0.359116 9.71359 1.07735C10.6525 1.79558 11.2483 2.80111 11.501 4.09392H9.37054C9.20203 3.36372 8.84093 2.78315 8.28724 2.35221C7.73356 1.92127 6.9933 1.7058 6.06648 1.7058C4.80263 1.7058 3.80359 2.13674 3.06935 2.99862C2.33511 3.84853 1.96799 5.02164 1.96799 6.51796C1.96799 8.0023 2.33511 9.16943 3.06935 10.0193C3.80359 10.8692 4.80263 11.2942 6.06648 11.2942C6.9933 11.2942 7.73356 11.0907 8.28724 10.6837C8.84093 10.2767 9.20203 9.72007 9.37054 9.01381H11.501C11.2483 10.2587 10.6525 11.2343 9.71359 11.9406C8.77473 12.6469 7.56504 13 6.08453 13Z" fill="#080415"/>
<path d="M16.0241 13C15.2658 13 14.6399 12.8743 14.1464 12.6229C13.6529 12.3715 13.2858 12.0424 13.045 11.6354C12.8043 11.2164 12.6839 10.7615 12.6839 10.2707C12.6839 9.40884 13.0209 8.72652 13.695 8.22376C14.3691 7.72099 15.332 7.46961 16.5838 7.46961H18.9309V7.30801C18.9309 6.61372 18.7384 6.093 18.3532 5.74586C17.9801 5.39871 17.4926 5.22514 16.8907 5.22514C16.3611 5.22514 15.8977 5.35681 15.5005 5.62016C15.1153 5.87155 14.8806 6.24862 14.7964 6.75138H12.8825C12.9427 6.10497 13.1594 5.55433 13.5325 5.09945C13.9177 4.6326 14.3991 4.27947 14.9769 4.04005C15.5667 3.78867 16.2107 3.66298 16.9088 3.66298C18.1606 3.66298 19.1296 3.99217 19.8156 4.65055C20.5017 5.29696 20.8448 6.18278 20.8448 7.30801V12.7845H19.1837L19.0212 11.2583C18.7685 11.7491 18.4013 12.1621 17.9199 12.4972C17.4384 12.8324 16.8065 13 16.0241 13ZM16.4032 11.4558C16.9208 11.4558 17.3541 11.3361 17.7032 11.0967C18.0643 10.8453 18.3412 10.5161 18.5337 10.1091C18.7384 9.70212 18.8647 9.25322 18.9129 8.76243H16.7824C16.0241 8.76243 15.4824 8.89411 15.1575 9.15746C14.8445 9.42081 14.688 9.75 14.688 10.145C14.688 10.552 14.8385 10.8752 15.1394 11.1146C15.4524 11.3421 15.8736 11.4558 16.4032 11.4558Z" fill="#080415"/>
<path d="M22.5346 12.7845V3.87845H24.2318L24.3762 5.44061C24.6531 4.88996 25.0563 4.45902 25.5859 4.14779C26.1276 3.82459 26.7474 3.66298 27.4456 3.66298C28.5289 3.66298 29.3775 3.99816 29.9913 4.66851C30.6172 5.33886 30.9302 6.3384 30.9302 7.66713V12.7845H29.0344V7.86464C29.0344 6.14088 28.3242 5.27901 26.9039 5.27901C26.1938 5.27901 25.604 5.53039 25.1345 6.03315C24.6771 6.53591 24.4484 7.25414 24.4484 8.18785V12.7845H22.5346Z" fill="#080415"/>
<path d="M35.0112 12.7845L31.653 3.87845H33.6571L36.1486 10.971L38.6402 3.87845H40.6263L37.2861 12.7845H35.0112Z" fill="#080415"/>
<path d="M44.1793 13C43.421 13 42.7951 12.8743 42.3016 12.6229C41.8081 12.3715 41.441 12.0424 41.2002 11.6354C40.9595 11.2164 40.8391 10.7615 40.8391 10.2707C40.8391 9.40884 41.1762 8.72652 41.8502 8.22376C42.5243 7.72099 43.4872 7.46961 44.739 7.46961H47.0862V7.30801C47.0862 6.61372 46.8936 6.093 46.5084 5.74586C46.1353 5.39871 45.6478 5.22514 45.046 5.22514C44.5163 5.22514 44.0529 5.35681 43.6557 5.62016C43.2705 5.87155 43.0358 6.24862 42.9516 6.75138H41.0377C41.0979 6.10497 41.3146 5.55433 41.6877 5.09945C42.0729 4.6326 42.5544 4.27947 43.1321 4.04005C43.7219 3.78867 44.3659 3.66298 45.064 3.66298C46.3158 3.66298 47.2848 3.99217 47.9709 4.65055C48.657 5.29696 49 6.18278 49 7.30801V12.7845H47.3389L47.1764 11.2583C46.9237 11.7491 46.5566 12.1621 46.0751 12.4972C45.5936 12.8324 44.9617 13 44.1793 13ZM44.5585 11.4558C45.076 11.4558 45.5094 11.3361 45.8584 11.0967C46.2195 10.8453 46.4964 10.5161 46.689 10.1091C46.8936 9.70212 47.02 9.25322 47.0681 8.76243H44.9376C44.1793 8.76243 43.6377 8.89411 43.3127 9.15746C42.9997 9.42081 42.8432 9.75 42.8432 10.145C42.8432 10.552 42.9937 10.8752 43.2946 11.1146C43.6076 11.3421 44.0289 11.4558 44.5585 11.4558Z" fill="#080415"/>
</svg>
